<mxfile host="app.diagrams.net" agent="Mozilla/5.0 (Windows NT 10.0; Win64; x64) AppleWebKit/537.36 (KHTML, like Gecko) Chrome/126.0.0.0 Safari/537.36 OPR/112.0.0.0" version="24.7.8">
  <diagram id="R2lEEEUBdFMjLlhIrx00" name="Page-1">
    <mxGraphModel dx="1393" dy="1863" grid="1" gridSize="10" guides="1" tooltips="1" connect="1" arrows="1" fold="1" page="1" pageScale="1" pageWidth="850" pageHeight="1100" math="0" shadow="0" extFonts="Permanent Marker^https://fonts.googleapis.com/css?family=Permanent+Marker">
      <root>
        <mxCell id="0" />
        <mxCell id="1" parent="0" />
        <mxCell id="6JEBwcmMibWsPmryH19Y-30" value="Realiza" style="rhombus;whiteSpace=wrap;html=1;" parent="1" vertex="1">
          <mxGeometry x="380" y="170" width="170" height="80" as="geometry" />
        </mxCell>
        <mxCell id="6JEBwcmMibWsPmryH19Y-31" value="Marca" style="rhombus;whiteSpace=wrap;html=1;" parent="1" vertex="1">
          <mxGeometry x="740" y="350" width="170" height="80" as="geometry" />
        </mxCell>
        <mxCell id="6JEBwcmMibWsPmryH19Y-32" value="Tem" style="rhombus;whiteSpace=wrap;html=1;" parent="1" vertex="1">
          <mxGeometry x="380" y="580" width="170" height="80" as="geometry" />
        </mxCell>
        <mxCell id="6JEBwcmMibWsPmryH19Y-33" value="" style="endArrow=none;html=1;rounded=0;entryX=0;entryY=0.5;entryDx=0;entryDy=0;" parent="1" target="6JEBwcmMibWsPmryH19Y-30" edge="1">
          <mxGeometry width="50" height="50" relative="1" as="geometry">
            <mxPoint x="270" y="210" as="sourcePoint" />
            <mxPoint x="350" y="200" as="targetPoint" />
          </mxGeometry>
        </mxCell>
        <mxCell id="6JEBwcmMibWsPmryH19Y-38" value="" style="endArrow=none;html=1;rounded=0;exitX=1;exitY=0.033;exitDx=0;exitDy=0;exitPerimeter=0;entryX=-0.004;entryY=0;entryDx=0;entryDy=0;entryPerimeter=0;" parent="1" edge="1">
          <mxGeometry width="50" height="50" relative="1" as="geometry">
            <mxPoint x="550" y="620" as="sourcePoint" />
            <mxPoint x="699" y="620" as="targetPoint" />
          </mxGeometry>
        </mxCell>
        <mxCell id="6JEBwcmMibWsPmryH19Y-39" value="" style="endArrow=none;html=1;rounded=0;exitX=1;exitY=0.033;exitDx=0;exitDy=0;exitPerimeter=0;entryX=0;entryY=0;entryDx=0;entryDy=0;entryPerimeter=0;" parent="1" edge="1">
          <mxGeometry width="50" height="50" relative="1" as="geometry">
            <mxPoint x="270" y="620" as="sourcePoint" />
            <mxPoint x="380" y="619.5" as="targetPoint" />
          </mxGeometry>
        </mxCell>
        <mxCell id="6JEBwcmMibWsPmryH19Y-40" value="" style="endArrow=oval;html=1;rounded=0;exitX=1;exitY=0.033;exitDx=0;exitDy=0;exitPerimeter=0;entryX=0;entryY=0;entryDx=0;entryDy=0;entryPerimeter=0;endFill=1;" parent="1" edge="1">
          <mxGeometry width="50" height="50" relative="1" as="geometry">
            <mxPoint x="20" y="24.5" as="sourcePoint" />
            <mxPoint x="130" y="24" as="targetPoint" />
          </mxGeometry>
        </mxCell>
        <mxCell id="6JEBwcmMibWsPmryH19Y-41" value="" style="endArrow=oval;html=1;rounded=0;exitX=1;exitY=0.033;exitDx=0;exitDy=0;exitPerimeter=0;entryX=0;entryY=0;entryDx=0;entryDy=0;entryPerimeter=0;endFill=0;" parent="1" edge="1">
          <mxGeometry width="50" height="50" relative="1" as="geometry">
            <mxPoint x="20" y="44.5" as="sourcePoint" />
            <mxPoint x="130" y="44" as="targetPoint" />
          </mxGeometry>
        </mxCell>
        <mxCell id="6JEBwcmMibWsPmryH19Y-42" value="" style="endArrow=oval;html=1;rounded=0;exitX=1;exitY=0.033;exitDx=0;exitDy=0;exitPerimeter=0;entryX=0;entryY=0;entryDx=0;entryDy=0;entryPerimeter=0;endFill=0;" parent="1" edge="1">
          <mxGeometry width="50" height="50" relative="1" as="geometry">
            <mxPoint x="20" y="64.5" as="sourcePoint" />
            <mxPoint x="130" y="64" as="targetPoint" />
          </mxGeometry>
        </mxCell>
        <mxCell id="6JEBwcmMibWsPmryH19Y-43" value="" style="endArrow=oval;html=1;rounded=0;exitX=1;exitY=0.033;exitDx=0;exitDy=0;exitPerimeter=0;entryX=0;entryY=0;entryDx=0;entryDy=0;entryPerimeter=0;endFill=0;" parent="1" edge="1">
          <mxGeometry width="50" height="50" relative="1" as="geometry">
            <mxPoint x="20" y="84.5" as="sourcePoint" />
            <mxPoint x="130" y="84" as="targetPoint" />
          </mxGeometry>
        </mxCell>
        <mxCell id="6JEBwcmMibWsPmryH19Y-44" value="" style="endArrow=oval;html=1;rounded=0;exitX=1;exitY=0.033;exitDx=0;exitDy=0;exitPerimeter=0;entryX=0;entryY=0;entryDx=0;entryDy=0;entryPerimeter=0;endFill=0;" parent="1" edge="1">
          <mxGeometry width="50" height="50" relative="1" as="geometry">
            <mxPoint x="20" y="104.5" as="sourcePoint" />
            <mxPoint x="130" y="104" as="targetPoint" />
          </mxGeometry>
        </mxCell>
        <mxCell id="6JEBwcmMibWsPmryH19Y-45" value="" style="endArrow=oval;html=1;rounded=0;exitX=1;exitY=0.033;exitDx=0;exitDy=0;exitPerimeter=0;entryX=0;entryY=0;entryDx=0;entryDy=0;entryPerimeter=0;endFill=0;" parent="1" edge="1">
          <mxGeometry width="50" height="50" relative="1" as="geometry">
            <mxPoint x="20" y="124.5" as="sourcePoint" />
            <mxPoint x="130" y="124" as="targetPoint" />
          </mxGeometry>
        </mxCell>
        <mxCell id="6JEBwcmMibWsPmryH19Y-46" value="&lt;font style=&quot;font-size: 11px;&quot;&gt;CRM(PK)&lt;/font&gt;" style="text;html=1;align=center;verticalAlign=middle;whiteSpace=wrap;rounded=0;fontSize=11;" parent="1" vertex="1">
          <mxGeometry x="150" y="14" width="30" height="20" as="geometry" />
        </mxCell>
        <mxCell id="6JEBwcmMibWsPmryH19Y-47" value="&lt;font style=&quot;font-size: 11px;&quot;&gt;especialidade&lt;/font&gt;" style="text;html=1;align=center;verticalAlign=middle;whiteSpace=wrap;rounded=0;fontSize=11;" parent="1" vertex="1">
          <mxGeometry x="160" y="34" width="30" height="20" as="geometry" />
        </mxCell>
        <mxCell id="6JEBwcmMibWsPmryH19Y-48" value="&lt;font style=&quot;font-size: 11px;&quot;&gt;nome&lt;/font&gt;" style="text;html=1;align=center;verticalAlign=middle;whiteSpace=wrap;rounded=0;fontSize=11;" parent="1" vertex="1">
          <mxGeometry x="140" y="54" width="30" height="20" as="geometry" />
        </mxCell>
        <mxCell id="6JEBwcmMibWsPmryH19Y-49" value="&lt;font style=&quot;font-size: 11px;&quot;&gt;email&lt;/font&gt;" style="text;html=1;align=center;verticalAlign=middle;whiteSpace=wrap;rounded=0;fontSize=11;" parent="1" vertex="1">
          <mxGeometry x="140" y="74" width="30" height="20" as="geometry" />
        </mxCell>
        <mxCell id="6JEBwcmMibWsPmryH19Y-50" value="telefone" style="text;html=1;align=center;verticalAlign=middle;whiteSpace=wrap;rounded=0;fontSize=11;" parent="1" vertex="1">
          <mxGeometry x="140" y="94" width="40" height="20" as="geometry" />
        </mxCell>
        <mxCell id="6JEBwcmMibWsPmryH19Y-51" value="&lt;font style=&quot;font-size: 11px;&quot;&gt;endereÃ§o&lt;/font&gt;" style="text;html=1;align=center;verticalAlign=middle;whiteSpace=wrap;rounded=0;fontSize=11;" parent="1" vertex="1">
          <mxGeometry x="150" y="114" width="30" height="20" as="geometry" />
        </mxCell>
        <mxCell id="6JEBwcmMibWsPmryH19Y-53" value="" style="endArrow=none;html=1;rounded=0;exitX=0;exitY=0;exitDx=0;exitDy=0;" parent="1" source="KnguoLS322Blt1NGnN99-21" edge="1">
          <mxGeometry width="50" height="50" relative="1" as="geometry">
            <mxPoint x="21" y="150" as="sourcePoint" />
            <mxPoint x="20" y="24" as="targetPoint" />
          </mxGeometry>
        </mxCell>
        <mxCell id="6JEBwcmMibWsPmryH19Y-55" value="" style="endArrow=oval;html=1;rounded=0;endFill=0;" parent="1" edge="1">
          <mxGeometry width="50" height="50" relative="1" as="geometry">
            <mxPoint x="230" y="23" as="sourcePoint" />
            <mxPoint x="280" y="23" as="targetPoint" />
          </mxGeometry>
        </mxCell>
        <mxCell id="6JEBwcmMibWsPmryH19Y-56" value="" style="endArrow=oval;html=1;rounded=0;endFill=0;" parent="1" edge="1">
          <mxGeometry width="50" height="50" relative="1" as="geometry">
            <mxPoint x="230" y="43" as="sourcePoint" />
            <mxPoint x="280" y="43" as="targetPoint" />
          </mxGeometry>
        </mxCell>
        <mxCell id="6JEBwcmMibWsPmryH19Y-57" value="" style="endArrow=oval;html=1;rounded=0;endFill=0;" parent="1" edge="1">
          <mxGeometry width="50" height="50" relative="1" as="geometry">
            <mxPoint x="230" y="63" as="sourcePoint" />
            <mxPoint x="280" y="63" as="targetPoint" />
          </mxGeometry>
        </mxCell>
        <mxCell id="6JEBwcmMibWsPmryH19Y-58" value="" style="endArrow=oval;html=1;rounded=0;endFill=0;" parent="1" edge="1">
          <mxGeometry width="50" height="50" relative="1" as="geometry">
            <mxPoint x="230" y="84" as="sourcePoint" />
            <mxPoint x="280" y="84" as="targetPoint" />
          </mxGeometry>
        </mxCell>
        <mxCell id="6JEBwcmMibWsPmryH19Y-59" value="" style="endArrow=oval;html=1;rounded=0;endFill=0;" parent="1" edge="1">
          <mxGeometry width="50" height="50" relative="1" as="geometry">
            <mxPoint x="230" y="104" as="sourcePoint" />
            <mxPoint x="280" y="104" as="targetPoint" />
          </mxGeometry>
        </mxCell>
        <mxCell id="6JEBwcmMibWsPmryH19Y-60" value="" style="endArrow=oval;html=1;rounded=0;endFill=0;" parent="1" edge="1">
          <mxGeometry width="50" height="50" relative="1" as="geometry">
            <mxPoint x="230" y="4" as="sourcePoint" />
            <mxPoint x="280" y="4" as="targetPoint" />
          </mxGeometry>
        </mxCell>
        <mxCell id="6JEBwcmMibWsPmryH19Y-61" value="" style="endArrow=oval;html=1;rounded=0;endFill=0;" parent="1" edge="1">
          <mxGeometry width="50" height="50" relative="1" as="geometry">
            <mxPoint x="230" y="124" as="sourcePoint" />
            <mxPoint x="280" y="124" as="targetPoint" />
          </mxGeometry>
        </mxCell>
        <mxCell id="6JEBwcmMibWsPmryH19Y-63" value="&lt;font style=&quot;font-size: 11px;&quot;&gt;rua&lt;/font&gt;" style="text;html=1;align=center;verticalAlign=middle;whiteSpace=wrap;rounded=0;fontSize=11;" parent="1" vertex="1">
          <mxGeometry x="280" y="-4" width="35" height="14" as="geometry" />
        </mxCell>
        <mxCell id="6JEBwcmMibWsPmryH19Y-64" value="numero" style="text;html=1;align=center;verticalAlign=middle;whiteSpace=wrap;rounded=0;fontSize=11;" parent="1" vertex="1">
          <mxGeometry x="287.5" y="10" width="35" height="24" as="geometry" />
        </mxCell>
        <mxCell id="6JEBwcmMibWsPmryH19Y-65" value="&lt;font style=&quot;font-size: 11px;&quot;&gt;complemento&lt;/font&gt;" style="text;html=1;align=center;verticalAlign=middle;whiteSpace=wrap;rounded=0;fontSize=11;" parent="1" vertex="1">
          <mxGeometry x="300" y="30" width="43" height="24" as="geometry" />
        </mxCell>
        <mxCell id="6JEBwcmMibWsPmryH19Y-66" value="&lt;font style=&quot;font-size: 11px;&quot;&gt;bairro&lt;/font&gt;" style="text;html=1;align=center;verticalAlign=middle;whiteSpace=wrap;rounded=0;fontSize=11;" parent="1" vertex="1">
          <mxGeometry x="282" y="50" width="43" height="24" as="geometry" />
        </mxCell>
        <mxCell id="6JEBwcmMibWsPmryH19Y-67" value="&lt;font style=&quot;font-size: 11px;&quot;&gt;CEP&lt;/font&gt;" style="text;html=1;align=center;verticalAlign=middle;whiteSpace=wrap;rounded=0;fontSize=11;" parent="1" vertex="1">
          <mxGeometry x="280" y="69" width="43" height="30" as="geometry" />
        </mxCell>
        <mxCell id="6JEBwcmMibWsPmryH19Y-68" value="cidade" style="text;html=1;align=center;verticalAlign=middle;whiteSpace=wrap;rounded=0;fontSize=11;" parent="1" vertex="1">
          <mxGeometry x="285" y="89" width="40" height="30" as="geometry" />
        </mxCell>
        <mxCell id="6JEBwcmMibWsPmryH19Y-69" value="&lt;font style=&quot;font-size: 11px;&quot;&gt;estado&lt;/font&gt;" style="text;html=1;align=center;verticalAlign=middle;whiteSpace=wrap;rounded=0;fontSize=11;" parent="1" vertex="1">
          <mxGeometry x="286" y="110" width="43" height="24" as="geometry" />
        </mxCell>
        <mxCell id="6JEBwcmMibWsPmryH19Y-70" value="" style="endArrow=none;html=1;rounded=0;" parent="1" edge="1">
          <mxGeometry width="50" height="50" relative="1" as="geometry">
            <mxPoint x="230" y="130" as="sourcePoint" />
            <mxPoint x="230" y="4" as="targetPoint" />
          </mxGeometry>
        </mxCell>
        <mxCell id="6JEBwcmMibWsPmryH19Y-72" value="" style="endArrow=none;html=1;rounded=0;" parent="1" edge="1">
          <mxGeometry width="50" height="50" relative="1" as="geometry">
            <mxPoint x="190" y="124" as="sourcePoint" />
            <mxPoint x="230" y="124" as="targetPoint" />
          </mxGeometry>
        </mxCell>
        <mxCell id="6JEBwcmMibWsPmryH19Y-80" value="" style="endArrow=oval;html=1;rounded=0;entryX=0;entryY=0;entryDx=0;entryDy=0;entryPerimeter=0;endFill=1;" parent="1" edge="1">
          <mxGeometry width="50" height="50" relative="1" as="geometry">
            <mxPoint x="700" y="682" as="sourcePoint" />
            <mxPoint x="810" y="682" as="targetPoint" />
          </mxGeometry>
        </mxCell>
        <mxCell id="6JEBwcmMibWsPmryH19Y-81" value="" style="endArrow=oval;html=1;rounded=0;exitX=1;exitY=0.033;exitDx=0;exitDy=0;exitPerimeter=0;entryX=0;entryY=0;entryDx=0;entryDy=0;entryPerimeter=0;endFill=0;" parent="1" edge="1">
          <mxGeometry width="50" height="50" relative="1" as="geometry">
            <mxPoint x="700" y="702.5" as="sourcePoint" />
            <mxPoint x="810" y="702" as="targetPoint" />
          </mxGeometry>
        </mxCell>
        <mxCell id="6JEBwcmMibWsPmryH19Y-82" value="" style="endArrow=oval;html=1;rounded=0;exitX=1;exitY=0.033;exitDx=0;exitDy=0;exitPerimeter=0;entryX=0;entryY=0;entryDx=0;entryDy=0;entryPerimeter=0;endFill=0;" parent="1" edge="1">
          <mxGeometry width="50" height="50" relative="1" as="geometry">
            <mxPoint x="700" y="722.5" as="sourcePoint" />
            <mxPoint x="810" y="722" as="targetPoint" />
          </mxGeometry>
        </mxCell>
        <mxCell id="6JEBwcmMibWsPmryH19Y-83" value="" style="endArrow=oval;html=1;rounded=0;exitX=1;exitY=0.033;exitDx=0;exitDy=0;exitPerimeter=0;entryX=0;entryY=0;entryDx=0;entryDy=0;entryPerimeter=0;endFill=0;" parent="1" edge="1">
          <mxGeometry width="50" height="50" relative="1" as="geometry">
            <mxPoint x="700" y="742.5" as="sourcePoint" />
            <mxPoint x="810" y="742" as="targetPoint" />
          </mxGeometry>
        </mxCell>
        <mxCell id="6JEBwcmMibWsPmryH19Y-84" value="" style="endArrow=oval;html=1;rounded=0;exitX=1;exitY=0.033;exitDx=0;exitDy=0;exitPerimeter=0;entryX=0;entryY=0;entryDx=0;entryDy=0;entryPerimeter=0;endFill=0;" parent="1" edge="1">
          <mxGeometry width="50" height="50" relative="1" as="geometry">
            <mxPoint x="700" y="762.5" as="sourcePoint" />
            <mxPoint x="810" y="762" as="targetPoint" />
          </mxGeometry>
        </mxCell>
        <mxCell id="6JEBwcmMibWsPmryH19Y-86" value="" style="endArrow=none;html=1;rounded=0;entryX=0;entryY=1;entryDx=0;entryDy=0;" parent="1" edge="1">
          <mxGeometry width="50" height="50" relative="1" as="geometry">
            <mxPoint x="700" y="762" as="sourcePoint" />
            <mxPoint x="700" y="660" as="targetPoint" />
          </mxGeometry>
        </mxCell>
        <mxCell id="6JEBwcmMibWsPmryH19Y-87" value="CPF(PK)" style="text;html=1;align=center;verticalAlign=middle;whiteSpace=wrap;rounded=0;fontSize=11;" parent="1" vertex="1">
          <mxGeometry x="820" y="672" width="40" height="20" as="geometry" />
        </mxCell>
        <mxCell id="6JEBwcmMibWsPmryH19Y-88" value="nome" style="text;html=1;align=center;verticalAlign=middle;whiteSpace=wrap;rounded=0;fontSize=11;" parent="1" vertex="1">
          <mxGeometry x="820" y="692" width="30" height="20" as="geometry" />
        </mxCell>
        <mxCell id="6JEBwcmMibWsPmryH19Y-89" value="telefone" style="text;html=1;align=center;verticalAlign=middle;whiteSpace=wrap;rounded=0;fontSize=11;" parent="1" vertex="1">
          <mxGeometry x="820" y="712" width="40" height="20" as="geometry" />
        </mxCell>
        <mxCell id="6JEBwcmMibWsPmryH19Y-90" value="email" style="text;html=1;align=center;verticalAlign=middle;whiteSpace=wrap;rounded=0;fontSize=11;" parent="1" vertex="1">
          <mxGeometry x="820" y="732" width="30" height="20" as="geometry" />
        </mxCell>
        <mxCell id="6JEBwcmMibWsPmryH19Y-91" value="endereÃ§o" style="text;html=1;align=center;verticalAlign=middle;whiteSpace=wrap;rounded=0;fontSize=11;" parent="1" vertex="1">
          <mxGeometry x="830" y="752" width="30" height="20" as="geometry" />
        </mxCell>
        <mxCell id="6JEBwcmMibWsPmryH19Y-93" value="" style="endArrow=oval;html=1;rounded=0;exitX=1;exitY=0.033;exitDx=0;exitDy=0;exitPerimeter=0;entryX=0;entryY=0;entryDx=0;entryDy=0;entryPerimeter=0;endFill=1;" parent="1" edge="1">
          <mxGeometry width="50" height="50" relative="1" as="geometry">
            <mxPoint x="700" y="54.5" as="sourcePoint" />
            <mxPoint x="810" y="54" as="targetPoint" />
          </mxGeometry>
        </mxCell>
        <mxCell id="6JEBwcmMibWsPmryH19Y-94" value="" style="endArrow=oval;html=1;rounded=0;exitX=1;exitY=0.033;exitDx=0;exitDy=0;exitPerimeter=0;entryX=0;entryY=0;entryDx=0;entryDy=0;entryPerimeter=0;endFill=0;" parent="1" edge="1">
          <mxGeometry width="50" height="50" relative="1" as="geometry">
            <mxPoint x="700" y="114.5" as="sourcePoint" />
            <mxPoint x="810" y="114" as="targetPoint" />
          </mxGeometry>
        </mxCell>
        <mxCell id="6JEBwcmMibWsPmryH19Y-95" value="" style="endArrow=oval;html=1;rounded=0;exitX=1;exitY=0.033;exitDx=0;exitDy=0;exitPerimeter=0;entryX=0;entryY=0;entryDx=0;entryDy=0;entryPerimeter=0;endFill=0;" parent="1" edge="1">
          <mxGeometry width="50" height="50" relative="1" as="geometry">
            <mxPoint x="700" y="134.5" as="sourcePoint" />
            <mxPoint x="810" y="134" as="targetPoint" />
          </mxGeometry>
        </mxCell>
        <mxCell id="6JEBwcmMibWsPmryH19Y-98" value="" style="endArrow=none;html=1;rounded=0;exitX=0;exitY=0;exitDx=0;exitDy=0;" parent="1" source="KnguoLS322Blt1NGnN99-20" edge="1">
          <mxGeometry width="50" height="50" relative="1" as="geometry">
            <mxPoint x="700" y="150" as="sourcePoint" />
            <mxPoint x="700" y="50" as="targetPoint" />
          </mxGeometry>
        </mxCell>
        <mxCell id="6JEBwcmMibWsPmryH19Y-99" value="IdConsulta" style="text;html=1;align=center;verticalAlign=middle;whiteSpace=wrap;rounded=0;fontSize=11;" parent="1" vertex="1">
          <mxGeometry x="825" y="44" width="40" height="20" as="geometry" />
        </mxCell>
        <mxCell id="6JEBwcmMibWsPmryH19Y-100" value="data" style="text;html=1;align=center;verticalAlign=middle;whiteSpace=wrap;rounded=0;fontSize=11;" parent="1" vertex="1">
          <mxGeometry x="815" y="104" width="30" height="20" as="geometry" />
        </mxCell>
        <mxCell id="6JEBwcmMibWsPmryH19Y-101" value="horÃ¡rio" style="text;html=1;align=center;verticalAlign=middle;whiteSpace=wrap;rounded=0;fontSize=11;" parent="1" vertex="1">
          <mxGeometry x="815" y="124" width="40" height="20" as="geometry" />
        </mxCell>
        <mxCell id="6JEBwcmMibWsPmryH19Y-104" value="" style="endArrow=oval;html=1;rounded=0;exitX=1;exitY=0.033;exitDx=0;exitDy=0;exitPerimeter=0;entryX=0;entryY=0;entryDx=0;entryDy=0;entryPerimeter=0;endFill=1;" parent="1" edge="1">
          <mxGeometry width="50" height="50" relative="1" as="geometry">
            <mxPoint x="20" y="682.5" as="sourcePoint" />
            <mxPoint x="130" y="682" as="targetPoint" />
          </mxGeometry>
        </mxCell>
        <mxCell id="6JEBwcmMibWsPmryH19Y-105" value="" style="endArrow=oval;html=1;rounded=0;exitX=1;exitY=0.033;exitDx=0;exitDy=0;exitPerimeter=0;entryX=0;entryY=0;entryDx=0;entryDy=0;entryPerimeter=0;endFill=0;" parent="1" edge="1">
          <mxGeometry width="50" height="50" relative="1" as="geometry">
            <mxPoint x="20" y="702.5" as="sourcePoint" />
            <mxPoint x="130" y="702" as="targetPoint" />
          </mxGeometry>
        </mxCell>
        <mxCell id="6JEBwcmMibWsPmryH19Y-106" value="" style="endArrow=oval;html=1;rounded=0;exitX=1;exitY=0.033;exitDx=0;exitDy=0;exitPerimeter=0;entryX=0;entryY=0;entryDx=0;entryDy=0;entryPerimeter=0;endFill=0;" parent="1" edge="1">
          <mxGeometry width="50" height="50" relative="1" as="geometry">
            <mxPoint x="20" y="722.5" as="sourcePoint" />
            <mxPoint x="130" y="722" as="targetPoint" />
          </mxGeometry>
        </mxCell>
        <mxCell id="6JEBwcmMibWsPmryH19Y-107" value="" style="endArrow=oval;html=1;rounded=0;exitX=1;exitY=0.033;exitDx=0;exitDy=0;exitPerimeter=0;entryX=0;entryY=0;entryDx=0;entryDy=0;entryPerimeter=0;endFill=0;" parent="1" edge="1">
          <mxGeometry width="50" height="50" relative="1" as="geometry">
            <mxPoint x="20" y="742.5" as="sourcePoint" />
            <mxPoint x="130" y="742" as="targetPoint" />
          </mxGeometry>
        </mxCell>
        <mxCell id="6JEBwcmMibWsPmryH19Y-108" value="" style="endArrow=oval;html=1;rounded=0;exitX=1;exitY=0.033;exitDx=0;exitDy=0;exitPerimeter=0;entryX=0;entryY=0;entryDx=0;entryDy=0;entryPerimeter=0;endFill=0;" parent="1" edge="1">
          <mxGeometry width="50" height="50" relative="1" as="geometry">
            <mxPoint x="20" y="762.5" as="sourcePoint" />
            <mxPoint x="130" y="762" as="targetPoint" />
          </mxGeometry>
        </mxCell>
        <mxCell id="6JEBwcmMibWsPmryH19Y-109" value="" style="endArrow=none;html=1;rounded=0;entryX=0;entryY=1;entryDx=0;entryDy=0;" parent="1" edge="1">
          <mxGeometry width="50" height="50" relative="1" as="geometry">
            <mxPoint x="20" y="800" as="sourcePoint" />
            <mxPoint x="20" y="660" as="targetPoint" />
          </mxGeometry>
        </mxCell>
        <mxCell id="6JEBwcmMibWsPmryH19Y-110" value="IdConvenio(PK)" style="text;html=1;align=center;verticalAlign=middle;whiteSpace=wrap;rounded=0;fontSize=11;" parent="1" vertex="1">
          <mxGeometry x="160" y="672" width="40" height="20" as="geometry" />
        </mxCell>
        <mxCell id="6JEBwcmMibWsPmryH19Y-111" value="empresa" style="text;html=1;align=center;verticalAlign=middle;whiteSpace=wrap;rounded=0;fontSize=11;" parent="1" vertex="1">
          <mxGeometry x="150" y="692" width="30" height="20" as="geometry" />
        </mxCell>
        <mxCell id="6JEBwcmMibWsPmryH19Y-112" value="tipo" style="text;html=1;align=center;verticalAlign=middle;whiteSpace=wrap;rounded=0;fontSize=11;" parent="1" vertex="1">
          <mxGeometry x="140" y="712" width="30" height="20" as="geometry" />
        </mxCell>
        <mxCell id="6JEBwcmMibWsPmryH19Y-113" value="vencimento" style="text;html=1;align=center;verticalAlign=middle;whiteSpace=wrap;rounded=0;fontSize=11;" parent="1" vertex="1">
          <mxGeometry x="160" y="732" width="30" height="20" as="geometry" />
        </mxCell>
        <mxCell id="6JEBwcmMibWsPmryH19Y-114" value="PercentualDeCoparticipacao" style="text;html=1;align=center;verticalAlign=middle;whiteSpace=wrap;rounded=0;fontSize=11;" parent="1" vertex="1">
          <mxGeometry x="200" y="752" width="30" height="20" as="geometry" />
        </mxCell>
        <mxCell id="KnguoLS322Blt1NGnN99-1" value="" style="endArrow=none;html=1;rounded=0;entryX=-0.008;entryY=1;entryDx=0;entryDy=0;exitX=1;exitY=0.033;exitDx=0;exitDy=0;exitPerimeter=0;entryPerimeter=0;" parent="1" edge="1">
          <mxGeometry width="50" height="50" relative="1" as="geometry">
            <mxPoint x="550" y="210.5" as="sourcePoint" />
            <mxPoint x="698" y="210" as="targetPoint" />
          </mxGeometry>
        </mxCell>
        <mxCell id="KnguoLS322Blt1NGnN99-2" value="" style="endArrow=none;html=1;rounded=0;entryX=0.5;entryY=0.952;entryDx=0;entryDy=0;exitX=0.5;exitY=0;exitDx=0;exitDy=0;entryPerimeter=0;" parent="1" source="6JEBwcmMibWsPmryH19Y-31" target="KnguoLS322Blt1NGnN99-20" edge="1">
          <mxGeometry width="50" height="50" relative="1" as="geometry">
            <mxPoint x="802" y="320.5" as="sourcePoint" />
            <mxPoint x="825" y="250" as="targetPoint" />
          </mxGeometry>
        </mxCell>
        <mxCell id="KnguoLS322Blt1NGnN99-3" value="" style="endArrow=none;html=1;rounded=0;entryX=0.5;entryY=1;entryDx=0;entryDy=0;exitX=0.5;exitY=0;exitDx=0;exitDy=0;" parent="1" source="KnguoLS322Blt1NGnN99-23" edge="1">
          <mxGeometry width="50" height="50" relative="1" as="geometry">
            <mxPoint x="825" y="560" as="sourcePoint" />
            <mxPoint x="824.5" y="430" as="targetPoint" />
          </mxGeometry>
        </mxCell>
        <mxCell id="KnguoLS322Blt1NGnN99-4" value="Atende" style="rhombus;whiteSpace=wrap;html=1;" parent="1" vertex="1">
          <mxGeometry x="60" y="360" width="170" height="80" as="geometry" />
        </mxCell>
        <mxCell id="KnguoLS322Blt1NGnN99-5" value="" style="endArrow=none;html=1;rounded=0;entryX=0.5;entryY=1;entryDx=0;entryDy=0;exitX=0.5;exitY=0;exitDx=0;exitDy=0;" parent="1" source="KnguoLS322Blt1NGnN99-4" edge="1">
          <mxGeometry width="50" height="50" relative="1" as="geometry">
            <mxPoint x="140.5" y="380" as="sourcePoint" />
            <mxPoint x="145" y="250" as="targetPoint" />
          </mxGeometry>
        </mxCell>
        <mxCell id="KnguoLS322Blt1NGnN99-6" value="" style="endArrow=none;html=1;rounded=0;entryX=0.5;entryY=1;entryDx=0;entryDy=0;exitX=0.5;exitY=0;exitDx=0;exitDy=0;" parent="1" source="KnguoLS322Blt1NGnN99-22" target="KnguoLS322Blt1NGnN99-4" edge="1">
          <mxGeometry width="50" height="50" relative="1" as="geometry">
            <mxPoint x="145" y="560" as="sourcePoint" />
            <mxPoint x="155" y="260" as="targetPoint" />
          </mxGeometry>
        </mxCell>
        <mxCell id="KnguoLS322Blt1NGnN99-7" value="(1:1)" style="text;html=1;align=center;verticalAlign=middle;resizable=0;points=[];autosize=1;strokeColor=none;fillColor=none;" parent="1" vertex="1">
          <mxGeometry x="265" y="185" width="50" height="30" as="geometry" />
        </mxCell>
        <mxCell id="KnguoLS322Blt1NGnN99-8" value="(0:n)" style="text;html=1;align=center;verticalAlign=middle;resizable=0;points=[];autosize=1;strokeColor=none;fillColor=none;" parent="1" vertex="1">
          <mxGeometry x="650" y="180" width="50" height="30" as="geometry" />
        </mxCell>
        <mxCell id="KnguoLS322Blt1NGnN99-9" value="(1:1)" style="text;html=1;align=center;verticalAlign=middle;resizable=0;points=[];autosize=1;strokeColor=none;fillColor=none;" parent="1" vertex="1">
          <mxGeometry x="140" y="260" width="50" height="30" as="geometry" />
        </mxCell>
        <mxCell id="KnguoLS322Blt1NGnN99-10" value="(0:n)" style="text;html=1;align=center;verticalAlign=middle;resizable=0;points=[];autosize=1;strokeColor=none;fillColor=none;" parent="1" vertex="1">
          <mxGeometry x="140" y="530" width="50" height="30" as="geometry" />
        </mxCell>
        <mxCell id="KnguoLS322Blt1NGnN99-11" value="(0:n)" style="text;html=1;align=center;verticalAlign=middle;resizable=0;points=[];autosize=1;strokeColor=none;fillColor=none;" parent="1" vertex="1">
          <mxGeometry x="820" y="250" width="50" height="30" as="geometry" />
        </mxCell>
        <mxCell id="KnguoLS322Blt1NGnN99-12" value="(1:1)" style="text;html=1;align=center;verticalAlign=middle;resizable=0;points=[];autosize=1;strokeColor=none;fillColor=none;" parent="1" vertex="1">
          <mxGeometry x="820" y="530" width="50" height="30" as="geometry" />
        </mxCell>
        <mxCell id="KnguoLS322Blt1NGnN99-13" value="(0:n)" style="text;html=1;align=center;verticalAlign=middle;resizable=0;points=[];autosize=1;strokeColor=none;fillColor=none;" parent="1" vertex="1">
          <mxGeometry x="265" y="595" width="50" height="30" as="geometry" />
        </mxCell>
        <mxCell id="KnguoLS322Blt1NGnN99-14" value="(1:1)" style="text;html=1;align=center;verticalAlign=middle;resizable=0;points=[];autosize=1;strokeColor=none;fillColor=none;" parent="1" vertex="1">
          <mxGeometry x="640" y="590" width="50" height="30" as="geometry" />
        </mxCell>
        <mxCell id="KnguoLS322Blt1NGnN99-15" value="" style="endArrow=oval;html=1;rounded=0;exitX=1;exitY=0.033;exitDx=0;exitDy=0;exitPerimeter=0;entryX=0;entryY=0;entryDx=0;entryDy=0;entryPerimeter=0;endFill=0;" parent="1" edge="1">
          <mxGeometry width="50" height="50" relative="1" as="geometry">
            <mxPoint x="700" y="94.5" as="sourcePoint" />
            <mxPoint x="810" y="94" as="targetPoint" />
          </mxGeometry>
        </mxCell>
        <mxCell id="KnguoLS322Blt1NGnN99-16" value="CRM(FK)" style="text;html=1;align=center;verticalAlign=middle;whiteSpace=wrap;rounded=0;fontSize=11;" parent="1" vertex="1">
          <mxGeometry x="825" y="84" width="30" height="20" as="geometry" />
        </mxCell>
        <mxCell id="KnguoLS322Blt1NGnN99-17" value="" style="endArrow=oval;html=1;rounded=0;endFill=0;" parent="1" edge="1">
          <mxGeometry width="50" height="50" relative="1" as="geometry">
            <mxPoint x="20" y="780" as="sourcePoint" />
            <mxPoint x="130" y="780" as="targetPoint" />
          </mxGeometry>
        </mxCell>
        <mxCell id="KnguoLS322Blt1NGnN99-18" value="CPF(FK)" style="text;html=1;align=center;verticalAlign=middle;whiteSpace=wrap;rounded=0;fontSize=11;" parent="1" vertex="1">
          <mxGeometry x="145" y="772" width="40" height="20" as="geometry" />
        </mxCell>
        <mxCell id="KnguoLS322Blt1NGnN99-20" value="Consulta" style="rounded=0;whiteSpace=wrap;html=1;" parent="1" vertex="1">
          <mxGeometry x="700" y="160" width="250" height="84" as="geometry" />
        </mxCell>
        <mxCell id="KnguoLS322Blt1NGnN99-21" value="Medico" style="rounded=0;whiteSpace=wrap;html=1;" parent="1" vertex="1">
          <mxGeometry x="20" y="160" width="250" height="90" as="geometry" />
        </mxCell>
        <mxCell id="KnguoLS322Blt1NGnN99-22" value="Convenio" style="rounded=0;whiteSpace=wrap;html=1;" parent="1" vertex="1">
          <mxGeometry x="20" y="575" width="250" height="90" as="geometry" />
        </mxCell>
        <mxCell id="KnguoLS322Blt1NGnN99-23" value="Paciente" style="rounded=0;whiteSpace=wrap;html=1;" parent="1" vertex="1">
          <mxGeometry x="700" y="570" width="250" height="90" as="geometry" />
        </mxCell>
        <mxCell id="KnguoLS322Blt1NGnN99-24" value="" style="endArrow=oval;html=1;rounded=0;endFill=0;" parent="1" edge="1">
          <mxGeometry width="50" height="50" relative="1" as="geometry">
            <mxPoint x="20" y="800" as="sourcePoint" />
            <mxPoint x="130" y="800" as="targetPoint" />
          </mxGeometry>
        </mxCell>
        <mxCell id="KnguoLS322Blt1NGnN99-25" value="CRM(FK)" style="text;html=1;align=center;verticalAlign=middle;whiteSpace=wrap;rounded=0;fontSize=11;" parent="1" vertex="1">
          <mxGeometry x="145" y="792" width="40" height="20" as="geometry" />
        </mxCell>
        <mxCell id="KnguoLS322Blt1NGnN99-27" value="" style="endArrow=oval;html=1;rounded=0;exitX=1;exitY=0.033;exitDx=0;exitDy=0;exitPerimeter=0;entryX=0;entryY=0;entryDx=0;entryDy=0;entryPerimeter=0;endFill=0;" parent="1" edge="1">
          <mxGeometry width="50" height="50" relative="1" as="geometry">
            <mxPoint x="700" y="74.5" as="sourcePoint" />
            <mxPoint x="810" y="74" as="targetPoint" />
          </mxGeometry>
        </mxCell>
        <mxCell id="KnguoLS322Blt1NGnN99-28" value="CPF(FK)" style="text;html=1;align=center;verticalAlign=middle;whiteSpace=wrap;rounded=0;fontSize=11;" parent="1" vertex="1">
          <mxGeometry x="825" y="64" width="30" height="20" as="geometry" />
        </mxCell>
        <mxCell id="KnguoLS322Blt1NGnN99-29" value="" style="endArrow=oval;html=1;rounded=0;endFill=0;" parent="1" edge="1">
          <mxGeometry width="50" height="50" relative="1" as="geometry">
            <mxPoint x="910" y="779" as="sourcePoint" />
            <mxPoint x="960" y="779" as="targetPoint" />
          </mxGeometry>
        </mxCell>
        <mxCell id="KnguoLS322Blt1NGnN99-30" value="" style="endArrow=oval;html=1;rounded=0;endFill=0;" parent="1" edge="1">
          <mxGeometry width="50" height="50" relative="1" as="geometry">
            <mxPoint x="910" y="799" as="sourcePoint" />
            <mxPoint x="960" y="799" as="targetPoint" />
          </mxGeometry>
        </mxCell>
        <mxCell id="KnguoLS322Blt1NGnN99-31" value="" style="endArrow=oval;html=1;rounded=0;endFill=0;" parent="1" edge="1">
          <mxGeometry width="50" height="50" relative="1" as="geometry">
            <mxPoint x="910" y="819" as="sourcePoint" />
            <mxPoint x="960" y="819" as="targetPoint" />
          </mxGeometry>
        </mxCell>
        <mxCell id="KnguoLS322Blt1NGnN99-32" value="" style="endArrow=oval;html=1;rounded=0;endFill=0;" parent="1" edge="1">
          <mxGeometry width="50" height="50" relative="1" as="geometry">
            <mxPoint x="910" y="840" as="sourcePoint" />
            <mxPoint x="960" y="840" as="targetPoint" />
          </mxGeometry>
        </mxCell>
        <mxCell id="KnguoLS322Blt1NGnN99-33" value="" style="endArrow=oval;html=1;rounded=0;endFill=0;" parent="1" edge="1">
          <mxGeometry width="50" height="50" relative="1" as="geometry">
            <mxPoint x="910" y="860" as="sourcePoint" />
            <mxPoint x="960" y="860" as="targetPoint" />
          </mxGeometry>
        </mxCell>
        <mxCell id="KnguoLS322Blt1NGnN99-34" value="" style="endArrow=oval;html=1;rounded=0;endFill=0;" parent="1" edge="1">
          <mxGeometry width="50" height="50" relative="1" as="geometry">
            <mxPoint x="910" y="760" as="sourcePoint" />
            <mxPoint x="960" y="760" as="targetPoint" />
          </mxGeometry>
        </mxCell>
        <mxCell id="KnguoLS322Blt1NGnN99-35" value="" style="endArrow=oval;html=1;rounded=0;endFill=0;" parent="1" edge="1">
          <mxGeometry width="50" height="50" relative="1" as="geometry">
            <mxPoint x="910" y="880" as="sourcePoint" />
            <mxPoint x="960" y="880" as="targetPoint" />
          </mxGeometry>
        </mxCell>
        <mxCell id="KnguoLS322Blt1NGnN99-36" value="&lt;font style=&quot;font-size: 11px;&quot;&gt;rua&lt;/font&gt;" style="text;html=1;align=center;verticalAlign=middle;whiteSpace=wrap;rounded=0;fontSize=11;" parent="1" vertex="1">
          <mxGeometry x="960" y="752" width="35" height="14" as="geometry" />
        </mxCell>
        <mxCell id="KnguoLS322Blt1NGnN99-37" value="numero" style="text;html=1;align=center;verticalAlign=middle;whiteSpace=wrap;rounded=0;fontSize=11;" parent="1" vertex="1">
          <mxGeometry x="967.5" y="766" width="35" height="24" as="geometry" />
        </mxCell>
        <mxCell id="KnguoLS322Blt1NGnN99-38" value="&lt;font style=&quot;font-size: 11px;&quot;&gt;complemento&lt;/font&gt;" style="text;html=1;align=center;verticalAlign=middle;whiteSpace=wrap;rounded=0;fontSize=11;" parent="1" vertex="1">
          <mxGeometry x="980" y="786" width="43" height="24" as="geometry" />
        </mxCell>
        <mxCell id="KnguoLS322Blt1NGnN99-39" value="&lt;font style=&quot;font-size: 11px;&quot;&gt;bairro&lt;/font&gt;" style="text;html=1;align=center;verticalAlign=middle;whiteSpace=wrap;rounded=0;fontSize=11;" parent="1" vertex="1">
          <mxGeometry x="962" y="806" width="43" height="24" as="geometry" />
        </mxCell>
        <mxCell id="KnguoLS322Blt1NGnN99-40" value="&lt;font style=&quot;font-size: 11px;&quot;&gt;CEP&lt;/font&gt;" style="text;html=1;align=center;verticalAlign=middle;whiteSpace=wrap;rounded=0;fontSize=11;" parent="1" vertex="1">
          <mxGeometry x="960" y="825" width="43" height="30" as="geometry" />
        </mxCell>
        <mxCell id="KnguoLS322Blt1NGnN99-41" value="cidade" style="text;html=1;align=center;verticalAlign=middle;whiteSpace=wrap;rounded=0;fontSize=11;" parent="1" vertex="1">
          <mxGeometry x="965" y="845" width="40" height="30" as="geometry" />
        </mxCell>
        <mxCell id="KnguoLS322Blt1NGnN99-42" value="&lt;font style=&quot;font-size: 11px;&quot;&gt;estado&lt;/font&gt;" style="text;html=1;align=center;verticalAlign=middle;whiteSpace=wrap;rounded=0;fontSize=11;" parent="1" vertex="1">
          <mxGeometry x="966" y="866" width="43" height="24" as="geometry" />
        </mxCell>
        <mxCell id="KnguoLS322Blt1NGnN99-43" value="" style="endArrow=none;html=1;rounded=0;" parent="1" edge="1">
          <mxGeometry width="50" height="50" relative="1" as="geometry">
            <mxPoint x="910" y="886" as="sourcePoint" />
            <mxPoint x="910" y="760" as="targetPoint" />
          </mxGeometry>
        </mxCell>
        <mxCell id="KnguoLS322Blt1NGnN99-44" value="" style="endArrow=none;html=1;rounded=0;" parent="1" edge="1">
          <mxGeometry width="50" height="50" relative="1" as="geometry">
            <mxPoint x="880" y="760" as="sourcePoint" />
            <mxPoint x="910" y="760" as="targetPoint" />
          </mxGeometry>
        </mxCell>
      </root>
    </mxGraphModel>
  </diagram>
</mxfile>
